<svg xmlns="http://www.w3.org/2000/svg" fill="none" viewBox="0 4.7552412587412585 105 30.20979020979021" style="max-height: 500px" width="105" height="30.20979020979021">
<path fill="white" d="M19.62 33.924C18.276 33.924 16.896 33.72 15.48 33.312C14.064 32.928 12.72 32.352 11.448 31.584C10.2 30.816 9.12 29.904 8.208 28.848C6.288 30.768 4.464 31.728 2.736 31.728C1.848 31.728 1.188 31.464 0.756 30.936C0.324 30.432 0.108 29.772 0.108 28.956C0.108 27.444 0.684 25.668 1.836 23.628C2.916 21.708 3.78 20.7 4.428 20.604C4.908 20.604 5.4 21.096 5.904 22.08L8.172 26.472C9.444 24.768 10.776 22.932 12.168 20.964C10.2 20.076 9.216 18.792 9.216 17.112C9.216 16.392 9.384 15.732 9.72 15.132C10.08 14.508 10.536 14.004 11.088 13.62C11.64 13.236 12.204 13.044 12.78 13.044C13.572 13.044 14.148 13.416 14.508 14.16C14.556 14.232 14.556 14.304 14.508 14.376C14.484 14.448 14.448 14.472 14.4 14.448C14.232 14.256 13.992 14.088 13.68 13.944C13.368 13.8 13.08 13.728 12.816 13.728C12.312 13.728 11.844 13.932 11.412 14.34C11.004 14.724 10.68 15.18 10.44 15.708C10.224 16.236 10.14 16.704 10.188 17.112C10.188 18.336 11.052 19.404 12.78 20.316C13.188 19.716 13.632 19.068 14.112 18.372C14.592 17.652 15.108 16.884 15.66 16.068C20.436 9.06 24.408 5.556 27.576 5.556C29.808 5.556 30.924 6.6 30.924 8.688C30.924 10.584 30 12.816 28.152 15.384C27.24 16.656 26.088 17.796 24.696 18.804C23.304 19.812 21.828 20.616 20.268 21.216C18.732 21.792 17.244 22.08 15.804 22.08C15.468 22.08 15.132 22.068 14.796 22.044C14.484 21.996 14.196 21.924 13.932 21.828C13.308 22.644 12.588 23.556 11.772 24.564C10.956 25.572 10.056 26.688 9.072 27.912C9.504 28.512 10.116 29.112 10.908 29.712C11.724 30.312 12.636 30.84 13.644 31.296C14.652 31.776 15.648 32.16 16.632 32.448C17.616 32.736 18.504 32.88 19.296 32.88C20.208 32.88 21.048 32.772 21.816 32.556C22.584 32.364 23.208 32.04 23.688 31.584C24.168 31.152 24.408 30.576 24.408 29.856C24.408 29.76 24.408 29.664 24.408 29.568C24.408 29.472 24.396 29.376 24.372 29.28C24.372 29.232 24.36 29.196 24.336 29.172C24.336 29.148 24.336 29.124 24.336 29.1C24.336 28.86 24.408 28.74 24.552 28.74C24.792 28.74 24.984 28.932 25.128 29.316C25.272 29.676 25.344 29.964 25.344 30.18C25.344 30.924 25.056 31.572 24.48 32.124C23.904 32.7 23.172 33.144 22.284 33.456C21.42 33.768 20.532 33.924 19.62 33.924ZM15.552 21.144C16.776 21.144 18.084 20.868 19.476 20.316C20.868 19.74 22.176 18.996 23.4 18.084C24.648 17.148 25.656 16.14 26.424 15.06C28.608 12.012 29.7 9.696 29.7 8.112C29.7 7.44 29.508 6.948 29.124 6.636C28.74 6.324 28.272 6.168 27.72 6.168C26.52 6.168 25.032 7.176 23.256 9.192C22.704 9.84 21.972 10.776 21.06 12C20.172 13.2 19.116 14.688 17.892 16.464C17.412 17.16 16.884 17.892 16.308 18.66C15.732 19.428 15.132 20.22 14.508 21.036C14.844 21.108 15.192 21.144 15.552 21.144ZM2.808 30.756C3.264 30.756 3.768 30.588 4.32 30.252C4.896 29.94 5.448 29.544 5.976 29.064C6.504 28.584 6.936 28.116 7.272 27.66C6.936 27.18 6.576 26.604 6.192 25.932C5.808 25.26 5.388 24.48 4.932 23.592C4.38 22.44 3.96 21.924 3.672 22.044C3.24 22.116 2.772 22.884 2.268 24.348C1.764 25.812 1.512 27.18 1.512 28.452C1.512 29.988 1.944 30.756 2.808 30.756ZM25.3873 30.396C24.3073 30.396 23.7673 29.712 23.7673 28.344C23.7673 27.816 23.9233 27.192 24.2353 26.472C24.5713 25.728 25.0393 24.948 25.6393 24.132C25.6393 24.132 25.4233 24.336 24.9913 24.744C24.5593 25.152 24.0673 25.668 23.5153 26.292C23.4193 26.388 23.2993 26.436 23.1553 26.436C23.0593 26.436 23.0113 26.376 23.0113 26.256C23.0113 26.136 23.1193 25.932 23.3353 25.644L28.3033 19.812C28.9273 19.092 29.6113 18.732 30.3553 18.732C30.9073 18.732 31.1833 18.948 31.1833 19.38C31.1833 19.548 31.1113 19.704 30.9673 19.848C30.5113 20.28 29.9473 20.892 29.2753 21.684C28.6273 22.476 27.9913 23.328 27.3673 24.24C26.7433 25.152 26.2153 26.028 25.7833 26.868C25.3753 27.684 25.1713 28.344 25.1713 28.848C25.1713 29.28 25.3153 29.496 25.6033 29.496C25.7713 29.496 26.0353 29.436 26.3953 29.316C26.7553 29.172 27.2353 28.896 27.8353 28.488C28.4353 28.056 29.1553 27.396 29.9953 26.508C30.1393 26.364 30.5233 25.932 31.1473 25.212C31.7713 24.492 32.6113 23.46 33.6673 22.116C35.5393 19.788 36.7633 18.624 37.3393 18.624C38.1313 18.624 38.5633 18.948 38.6353 19.596C38.6833 19.812 38.1793 20.52 37.1233 21.72C35.7553 23.376 34.8193 24.564 34.3153 25.284C33.3793 26.652 32.9113 27.72 32.9113 28.488C32.9113 29.016 33.0913 29.28 33.4513 29.28C33.8113 29.28 34.2673 29.112 34.8193 28.776C35.3953 28.416 35.9953 27.972 36.6193 27.444C37.2433 26.892 37.8433 26.328 38.4193 25.752C39.0193 25.152 39.5353 24.6 39.9673 24.096C40.1113 23.928 40.2553 23.844 40.3993 23.844C40.5433 23.844 40.6153 23.916 40.6153 24.06C40.6153 24.108 40.6033 24.18 40.5793 24.276C40.5553 24.372 40.4833 24.48 40.3633 24.6C39.9793 25.032 39.4873 25.572 38.8873 26.22C38.2873 26.844 37.6393 27.468 36.9433 28.092C36.2473 28.716 35.5753 29.232 34.9273 29.64C34.2793 30.048 33.7273 30.252 33.2713 30.252C32.7193 30.252 32.2393 30.108 31.8313 29.82C31.4233 29.508 31.2193 29.088 31.2193 28.56C31.2193 28.032 31.3033 27.504 31.4713 26.976C31.6393 26.424 31.7713 25.956 31.8673 25.572C30.7393 26.892 29.7433 27.9 28.8793 28.596C28.0393 29.292 27.3313 29.76 26.7553 30C26.1793 30.264 25.7233 30.396 25.3873 30.396ZM47.4843 30.072C46.9083 30.072 46.6203 29.748 46.6203 29.1C46.8843 27.756 47.4243 26.244 48.2403 24.564C48.6243 23.748 49.0083 22.944 49.3923 22.152C49.8003 21.36 50.1963 20.556 50.5803 19.74C49.6923 20.34 48.8043 21.012 47.9163 21.756C47.0283 22.476 46.1643 23.292 45.3243 24.204C44.3403 25.26 43.2003 26.616 41.9043 28.272C40.9683 29.448 40.4283 30.036 40.2843 30.036C39.9483 30.036 39.6723 29.88 39.4563 29.568C39.2403 29.256 39.1323 28.992 39.1323 28.776C39.1323 28.464 39.4083 27.66 39.9603 26.364C40.1283 25.956 40.2963 25.56 40.4643 25.176C40.6563 24.768 40.8363 24.372 41.0043 23.988L38.8443 26.256C38.7963 26.304 38.6523 26.448 38.4123 26.688C38.1723 26.928 37.9803 27.048 37.8363 27.048C37.7163 27.048 37.6563 26.964 37.6563 26.796C37.6563 26.748 37.6803 26.688 37.7283 26.616C37.7523 26.52 37.8243 26.412 37.9443 26.292C38.3043 25.932 38.6763 25.548 39.0603 25.14C39.4443 24.732 39.8403 24.264 40.2483 23.736C40.5603 23.328 41.0043 22.728 41.5803 21.936C42.1803 21.12 42.9123 20.1 43.7763 18.876C44.0403 18.516 44.4123 18.336 44.8923 18.336C45.3723 18.336 45.6123 18.564 45.6123 19.02C45.6123 19.188 45.0003 20.304 43.7763 22.368C43.1523 23.472 42.6483 24.372 42.2643 25.068C41.9043 25.764 41.6763 26.28 41.5803 26.616C42.1083 26.04 42.7323 25.392 43.4523 24.672C44.1963 23.952 45.0483 23.148 46.0083 22.26C48.9603 19.524 50.9043 18.156 51.8403 18.156C52.1043 18.156 52.3563 18.24 52.5963 18.408C52.8603 18.576 52.9923 18.792 52.9923 19.056C52.9923 19.176 52.5243 20.052 51.5883 21.684C50.6763 23.34 50.1723 24.324 50.0763 24.636C52.7403 22.404 54.0723 21.276 54.0723 21.252C56.3283 19.5 57.9483 18.624 58.9323 18.624C59.2203 18.624 59.4843 18.72 59.7243 18.912C59.9883 19.08 60.1203 19.284 60.1203 19.524C60.1203 19.572 59.3523 20.58 57.8163 22.548C56.2323 24.54 55.3443 26.172 55.1523 27.444C55.0563 28.308 55.5003 28.74 56.4843 28.74C57.0843 28.74 57.9243 28.356 59.0043 27.588C60.0843 26.82 61.2123 25.764 62.3883 24.42C62.5323 24.252 62.6883 24.096 62.8563 23.952C63.0243 23.784 63.1683 23.7 63.2883 23.7C63.4323 23.7 63.5043 23.76 63.5043 23.88C63.5043 24.048 63.3963 24.24 63.1803 24.456C62.5563 25.2 61.8123 25.968 60.9483 26.76C60.1083 27.552 59.2683 28.224 58.4283 28.776C57.5883 29.304 56.8443 29.568 56.1963 29.568C54.5643 29.568 53.7483 28.812 53.7483 27.3C53.7483 26.772 53.8923 26.16 54.1803 25.464C54.4683 24.744 54.7563 24.096 55.0443 23.52C55.7403 22.176 56.4963 20.988 57.3123 19.956C56.5443 20.34 55.7403 20.844 54.9003 21.468C54.0843 22.092 53.2323 22.824 52.3443 23.664C50.2803 25.68 48.8643 27.72 48.0963 29.784C47.9763 29.976 47.7723 30.072 47.4843 30.072ZM69.6552 17.616C69.2472 17.616 68.8872 17.484 68.5752 17.22C68.2872 16.956 68.1432 16.656 68.1432 16.32C68.1432 15.648 68.5992 15.312 69.5112 15.312C69.8472 15.312 70.1832 15.432 70.5192 15.672C70.8552 15.888 71.0232 16.164 71.0232 16.5C71.0232 16.788 70.8672 17.052 70.5552 17.292C70.2432 17.508 69.9432 17.616 69.6552 17.616ZM62.9952 30.396C62.4672 30.396 62.0352 30.228 61.6992 29.892C61.3392 29.532 61.1592 28.908 61.1592 28.02C61.1592 27.516 61.2792 26.94 61.5192 26.292C61.7352 25.62 62.0112 24.948 62.3472 24.276C62.7072 23.604 63.0552 23.004 63.3912 22.476C64.7352 20.292 65.8392 19.188 66.7032 19.164C66.9192 19.164 67.1832 19.26 67.4952 19.452C67.8072 19.62 67.9632 19.812 67.9632 20.028C67.9632 20.028 67.0512 21.204 65.2272 23.556C63.4272 25.884 62.5272 27.54 62.5272 28.524C62.5272 29.292 62.8272 29.676 63.4272 29.676C63.8112 29.676 64.3032 29.52 64.9032 29.208C65.5272 28.872 66.1752 28.452 66.8472 27.948C67.5192 27.444 68.1552 26.904 68.7552 26.328C69.3792 25.752 69.8832 25.224 70.2672 24.744C70.5072 24.432 70.7112 24.216 70.8792 24.096C71.0712 23.976 71.1912 23.916 71.2392 23.916C71.3352 23.916 71.3832 23.988 71.3832 24.132C71.3832 24.252 71.2392 24.492 70.9512 24.852C70.6872 25.212 70.3152 25.632 69.8352 26.112C69.2592 26.688 68.6232 27.312 67.9272 27.984C67.2312 28.656 66.4752 29.232 65.6592 29.712C64.8432 30.168 63.9552 30.396 62.9952 30.396ZM71.6563 30.468C70.8883 30.468 70.1923 30.228 69.5683 29.748C68.9443 29.244 68.6323 28.584 68.6323 27.768C68.6323 26.064 69.6763 24.12 71.7643 21.936C73.9003 19.728 75.8083 18.624 77.4883 18.624C78.0403 18.624 78.4843 18.78 78.8203 19.092C79.1803 19.38 79.3603 19.74 79.3603 20.172C79.3603 21.516 78.2923 22.836 76.1563 24.132C74.2603 25.284 72.6643 25.86 71.3683 25.86C71.1763 25.86 71.0083 25.836 70.8643 25.788C70.5043 26.436 70.3243 27.12 70.3243 27.84C70.3243 29.088 70.9123 29.712 72.0883 29.712C73.2883 29.712 74.8363 28.908 76.7323 27.3C78.1963 26.124 79.4443 24.876 80.4763 23.556C80.6923 23.268 80.8843 23.124 81.0523 23.124C81.1963 23.124 81.2683 23.196 81.2683 23.34C81.2683 23.484 81.1723 23.688 80.9803 23.952C80.3083 24.84 79.5883 25.656 78.8203 26.4C78.0523 27.144 77.2243 27.828 76.3363 28.452C74.4883 29.796 72.9283 30.468 71.6563 30.468ZM71.8723 25.068C72.7843 25.068 73.9723 24.612 75.4363 23.7C75.9163 23.364 76.3843 22.992 76.8403 22.584C77.3203 22.152 77.7043 21.72 77.9923 21.288C78.3043 20.856 78.4603 20.472 78.4603 20.136C78.4603 19.824 78.2083 19.668 77.7043 19.668C76.9843 19.668 75.9763 20.208 74.6803 21.288C74.0563 21.816 73.4563 22.392 72.8803 23.016C72.3043 23.64 71.8123 24.3 71.4043 24.996C71.5483 25.044 71.7043 25.068 71.8723 25.068ZM86.4104 30.18C85.3784 30.18 84.6704 29.916 84.2864 29.388C83.9024 28.836 83.7104 28.104 83.7104 27.192C83.7104 26.184 84.0224 24.984 84.6464 23.592C84.8864 23.04 85.1384 22.548 85.4024 22.116C85.6664 21.66 85.9424 21.24 86.2304 20.856C86.1344 20.88 86.0504 20.892 85.9784 20.892C85.9064 20.892 85.8344 20.892 85.7624 20.892C85.1864 20.892 84.7064 20.484 84.3224 19.668L81.6584 23.124C80.2424 24.972 79.3784 25.896 79.0664 25.896C78.9464 25.896 78.8864 25.848 78.8864 25.752C78.8864 25.632 78.9464 25.476 79.0664 25.284C79.1384 25.14 79.2824 24.948 79.4984 24.708C80.4104 23.652 81.2504 22.608 82.0184 21.576C82.7864 20.544 83.4224 19.536 83.9264 18.552C84.4784 16.464 85.1744 15.42 86.0144 15.42C86.5664 15.42 86.8424 15.672 86.8424 16.176C86.8424 16.632 86.5424 17.232 85.9424 17.976C85.3664 18.72 85.0784 19.104 85.0784 19.128C85.0784 19.632 85.4504 19.884 86.1944 19.884C86.6264 19.884 87.1064 19.728 87.6344 19.416L88.5704 18.84C88.6184 18.816 88.6904 18.804 88.7864 18.804C89.0744 18.804 89.3264 18.924 89.5424 19.164C89.7584 19.404 89.8304 19.62 89.7584 19.812L87.2744 22.944C85.7384 24.912 84.9704 26.496 84.9704 27.696C84.9704 28.776 85.4984 29.316 86.5544 29.316C87.2744 29.316 88.0424 29.1 88.8584 28.668C89.6984 28.236 90.5024 27.708 91.2704 27.084C92.0624 26.436 92.7224 25.812 93.2504 25.212L94.1144 24.204C94.1624 24.156 94.2224 24.096 94.2944 24.024C94.3664 23.952 94.4264 23.916 94.4744 23.916C94.6424 23.916 94.7264 24 94.7264 24.168C94.7264 24.216 94.7024 24.3 94.6544 24.42C94.6064 24.54 94.5224 24.672 94.4024 24.816L93.2504 26.112C92.6984 26.736 92.0144 27.372 91.1984 28.02C90.4064 28.644 89.5784 29.16 88.7144 29.568C87.8744 29.976 87.1064 30.18 86.4104 30.18ZM95.0704 30.468C94.3024 30.468 93.6064 30.228 92.9824 29.748C92.3584 29.244 92.0464 28.584 92.0464 27.768C92.0464 26.064 93.0904 24.12 95.1784 21.936C97.3144 19.728 99.2224 18.624 100.902 18.624C101.454 18.624 101.898 18.78 102.234 19.092C102.594 19.38 102.774 19.74 102.774 20.172C102.774 21.516 101.706 22.836 99.5704 24.132C97.6744 25.284 96.0784 25.86 94.7824 25.86C94.5904 25.86 94.4224 25.836 94.2784 25.788C93.9184 26.436 93.7384 27.12 93.7384 27.84C93.7384 29.088 94.3264 29.712 95.5024 29.712C96.7024 29.712 98.2504 28.908 100.146 27.3C101.61 26.124 102.858 24.876 103.89 23.556C104.106 23.268 104.298 23.124 104.466 23.124C104.61 23.124 104.682 23.196 104.682 23.34C104.682 23.484 104.586 23.688 104.394 23.952C103.722 24.84 103.002 25.656 102.234 26.4C101.466 27.144 100.638 27.828 99.7504 28.452C97.9024 29.796 96.3424 30.468 95.0704 30.468ZM95.2864 25.068C96.1984 25.068 97.3864 24.612 98.8504 23.7C99.3304 23.364 99.7984 22.992 100.254 22.584C100.734 22.152 101.118 21.72 101.406 21.288C101.718 20.856 101.874 20.472 101.874 20.136C101.874 19.824 101.622 19.668 101.118 19.668C100.398 19.668 99.3904 20.208 98.0944 21.288C97.4704 21.816 96.8704 22.392 96.2944 23.016C95.7184 23.64 95.2264 24.3 94.8184 24.996C94.9624 25.044 95.1184 25.068 95.2864 25.068Z"/>
<path fill="url(#paint0_linear_2285_30)" d="M8.38085 15.029C8.28165 15.4167 7.72943 15.412 7.63683 15.0227V15.0227C7.24157 13.3611 5.95792 12.0555 4.30327 11.6321V11.6321C3.91562 11.5329 3.92032 10.9806 4.30959 10.888V10.888C5.97119 10.4928 7.27685 9.20919 7.70029 7.55456V7.55456C7.79949 7.16692 8.35171 7.17161 8.44431 7.56088V7.56088C8.83957 9.22247 10.1232 10.5281 11.7779 10.9515V10.9515C12.1655 11.0507 12.1608 11.6029 11.7715 11.6955V11.6955C10.1099 12.0908 8.80429 13.3744 8.38085 15.029V15.029Z"/>
<path fill="url(#paint1_linear_2285_30)" d="M4.27714 16.6403C4.23699 16.7972 4.01347 16.7953 3.97599 16.6378V16.6378C3.816 15.9652 3.29643 15.4368 2.62669 15.2654V15.2654C2.46979 15.2252 2.47169 15.0017 2.62925 14.9642V14.9642C3.3018 14.8042 3.83028 14.2847 4.00167 13.6149V13.6149C4.04183 13.458 4.26534 13.4599 4.30283 13.6175V13.6175C4.46281 14.2901 4.98239 14.8185 5.65212 14.9899V14.9899C5.80903 15.0301 5.80713 15.2536 5.64956 15.2911V15.2911C4.97701 15.451 4.44853 15.9706 4.27714 16.6403V16.6403Z"/>
<path fill="url(#paint2_linear_2285_30)" d="M6.59745 18.8603C6.57029 18.9664 6.41912 18.9651 6.39377 18.8586V18.8586C6.28557 18.4037 5.93417 18.0463 5.4812 17.9304V17.9304C5.37508 17.9032 5.37637 17.7521 5.48293 17.7267V17.7267C5.9378 17.6185 6.29523 17.2671 6.41114 16.8142V16.8142C6.4383 16.708 6.58947 16.7093 6.61482 16.8159V16.8159C6.72302 17.2708 7.07443 17.6282 7.52739 17.7441V17.7441C7.63351 17.7712 7.63223 17.9224 7.52566 17.9478V17.9478C7.07079 18.056 6.71337 18.4074 6.59745 18.8603V18.8603Z"/>
<defs>
<linearGradient gradientUnits="userSpaceOnUse" y2="6.05085" x2="8.0851" y1="16.5327" x1="7.99604" id="paint0_linear_2285_30">
<stop stop-color="#D5C1FF"/>
<stop stop-color="#5A0280" offset="1"/>
</linearGradient>
<linearGradient gradientUnits="userSpaceOnUse" y2="13.0063" x2="4.15743" y1="17.249" x1="4.12138" id="paint1_linear_2285_30">
<stop stop-color="#D5C1FF"/>
<stop stop-color="#5A0280" offset="1"/>
</linearGradient>
<linearGradient gradientUnits="userSpaceOnUse" y2="16.4025" x2="6.51649" y1="19.272" x1="6.49211" id="paint2_linear_2285_30">
<stop stop-color="#D5C1FF"/>
<stop stop-color="#5A0280" offset="1"/>
</linearGradient>
</defs>
</svg>